<?xml version="1.0" encoding="iso-8859-1"?>
<!DOCTYPE svg PUBLIC "-//W3C//DTD SVG 20000303 Stylable//EN" "http://www.w3.org/TR/2000/03/WD-SVG-20000303/DTD/svg-20000303-stylable.dtd">
<!-- Creator: CorelDRAW -->
<svg xml:space="preserve" x="-3.60763in" y="-1.75522in" width="7.21676in" height="3.35185in" style="shape-rendering:geometricPrecision; text-rendering:geometricPrecision; image-rendering:optimizeQuality"
     viewBox="-3608 0 7217 3352">
 <defs>
  <style type="text/css">
   <![CDATA[
    .str0 {stroke:#000000;stroke-width:3}
    .fil5 {fill:none}
    .fil0 {fill:#000000}
    .fil7 {fill:#FF0000}
    .fil3 {fill:#FFFFFF}
    .fil6 {fill:#3300CC}
    .fil4 {fill:#FFFF00}
    .fil1 {fill:#000000;fill-opacity:0.000000}
    .fil2 {fill:url(#id0)}
    .fnt0 {font-weight:normal;font-size:972;font-family:'AvantGarde Bk BT'}
   ]]>
  </style>
  <linearGradient id="id0" x1="8" y1="1871" x2="-8" y2="2676">
   <stop offset="0" style="stop-color:#CC9933"/>
   <stop offset="0.780392" style="stop-color:#E5CC99"/>
   <stop offset="1" style="stop-color:#FFFFFF"/>
  </linearGradient>
 </defs>
 <path class="fil0" d="M-4250 -393l8500 0 0 11000 -8500 0 0 -11000z"/>
 <g id="Layer 1">
  <a xlink:href="http://www.adapower.com/gwindows">
   <rect class="fil1" x="-3555" y="1940" width="7110" height="667"/>
   <path id="33652416" class="fil2" d="M-2760 2060l-484 0 0 421 484 0 0 -148 -253 0 0 -113 404 0 0 229c0,61 -11,103 -34,125 -23,22 -67,33 -131,33l-460 0c-64,0 -108,-11 -131,-33 -23,-22 -34,-64 -34,-125l0 -351c0,-61 11,-102 34,-124 23,-22 67,-34 131,-34l460 0c64,0 107,11 130,33 23,22 35,62 35,119l0 15 -151 27 0 -74z"/>
   <path id="33652416" class="fil2" d="M-2167 2607l-257 -667 160 0 169 447 178 -447 108 0 180 447 162 -447 138 0 -257 667 -105 0 -183 -461 -186 461 -107 0z"/>
   <path id="33652416" class="fil2" d="M-1203 2607l0 -546 132 0 0 546 -132 0z"/>
   <path id="33652416" class="fil2" d="M-827 2607l0 -546 91 0 463 362 0 -362 121 0 0 546 -92 0 -462 -368 0 368 -121 0z"/>
   <path id="33652416" class="fil2" d="M226 2505l171 0c94,0 160,-14 197,-41 37,-28 56,-74 56,-138 0,-57 -15,-99 -47,-126 -31,-28 -78,-41 -143,-41l-234 0 0 346zm-134 102l0 -546 367 0c106,0 187,23 243,70 57,47 85,114 85,201 0,91 -30,160 -90,206 -60,46 -150,69 -271,69l-334 0z"/>
   <path id="33652416" class="fil2" d="M1107 2502l440 0 0 -341 -440 0 0 341zm-133 -312c0,-50 10,-84 29,-102 20,-18 57,-27 113,-27l423 0c56,0 94,9 113,27 19,18 28,52 28,102l0 288c0,50 -9,84 -29,102 -19,18 -57,27 -112,27l-423 0c-56,0 -93,-9 -113,-27 -19,-18 -29,-52 -29,-102l0 -288z"/>
   <path id="33652416" class="fil2" d="M2057 2607l-221 -546 139 0 143 381 154 -381 91 0 153 381 140 -381 121 0 -220 546 -90 0 -158 -386 -160 386 -92 0z"/>
   <path id="33652416" class="fil2" d="M3434 2159l-376 0 0 115 356 0c56,0 93,9 112,27 20,17 29,51 29,101l0 75c0,51 -9,85 -29,103 -20,18 -57,27 -112,27l-355 0c-56,0 -94,-9 -114,-27 -20,-18 -30,-52 -30,-103l0 -15 118 -22 0 65 402 0 0 -125 -354 0c-56,0 -93,-9 -113,-28 -20,-18 -30,-52 -30,-102l0 -61c0,-49 10,-83 30,-101 20,-18 57,-27 113,-27l324 0c56,0 93,9 114,26 20,18 30,48 30,92l0 14 -115 24 0 -58z"/>
  </a>
  <path id="33649952" class="fil3" d="M-3134 3282l-45 0 0 -237 44 0 98 151 0 -151 45 0 0 237 -43 0 -99 -156 0 156z"/>
  <path id="33649952" class="fil3" d="M-2922 3191c0,15 5,27 15,38 10,10 23,15 37,15 13,0 25,-5 35,-15 10,-11 15,-23 15,-36 0,-15 -5,-27 -15,-38 -10,-10 -22,-16 -36,-16 -14,0 -26,5 -36,15 -10,10 -15,22 -15,37zm106 91l0 -22c-5,9 -12,15 -21,19 -9,5 -20,7 -35,7 -26,0 -48,-9 -66,-27 -18,-18 -26,-41 -26,-68 0,-12 2,-24 6,-35 5,-12 11,-22 19,-30 9,-10 19,-17 30,-21 11,-5 23,-7 37,-7 13,0 24,2 33,7 10,4 17,11 23,19l0 -21 41 0 0 179 -41 0z"/>
  <path id="33649952" class="fil3" d="M-2726 3282l0 -142 -27 0 0 -37 27 0 0 -58 42 0 0 58 27 0 0 37 -27 0 0 142 -42 0z"/>
  <path id="33649952" class="fil3" d="M-2596 3084l-41 0 0 -39 41 0 0 39zm-41 198l0 -179 41 0 0 179 -41 0z"/>
  <path id="33649952" class="fil3" d="M-2481 3282l-33 0 -68 -179 45 0 41 119 43 -119 44 0 -72 179z"/>
  <path id="33649952" class="fil3" d="M-2266 3172c-3,-12 -9,-21 -18,-27 -8,-6 -19,-9 -32,-9 -11,0 -21,3 -29,10 -9,7 -15,15 -18,26l97 0zm-99 33c2,13 7,24 16,31 9,7 20,11 34,11 9,0 18,-2 25,-6 8,-4 14,-9 18,-16l45 0c-8,19 -19,34 -34,45 -15,11 -33,16 -53,16 -13,0 -25,-2 -37,-7 -11,-4 -21,-11 -30,-21 -8,-8 -15,-18 -19,-30 -5,-12 -7,-23 -7,-36 0,-12 2,-24 6,-35 4,-11 11,-21 19,-30 9,-9 19,-17 31,-22 11,-5 23,-8 35,-8 16,0 30,4 44,11 13,7 25,17 34,30 6,7 10,16 13,26 3,9 4,20 4,32 0,1 0,3 0,5 0,2 0,3 0,4l-144 0z"/>
  <path id="33649952" class="fil3" d="M-2122 3045l48 0 39 153 43 -153 32 0 43 153 39 -153 47 0 -69 237 -36 0 -40 -148 -40 148 -37 0 -69 -237z"/>
  <path id="33649952" class="fil3" d="M-1770 3084l-41 0 0 -39 41 0 0 39zm-41 198l0 -179 41 0 0 179 -41 0z"/>
  <path id="33649952" class="fil3" d="M-1692 3103l0 20c6,-8 13,-14 21,-18 8,-4 17,-6 27,-6 13,0 24,3 34,7 9,5 17,13 24,22 4,7 7,14 9,23 1,8 2,20 2,36l0 95 -41 0 0 -80c0,-24 -3,-40 -9,-49 -5,-9 -15,-13 -28,-13 -14,0 -24,5 -30,15 -6,9 -9,26 -9,50l0 77 -41 0 0 -179 41 0z"/>
  <path id="33649952" class="fil3" d="M-1401 3193c0,-15 -5,-28 -15,-38 -9,-10 -22,-16 -36,-16 -14,0 -27,6 -37,16 -10,11 -15,23 -15,37 0,15 5,28 15,38 10,10 23,15 39,15 14,0 25,-5 35,-15 9,-10 14,-22 14,-37zm2 -76l0 -72 41 0 0 237 -41 0 0 -15c-9,7 -17,11 -26,15 -10,3 -19,4 -30,4 -11,0 -22,-1 -32,-5 -10,-3 -19,-9 -27,-16 -11,-9 -19,-20 -25,-33 -6,-12 -8,-26 -8,-40 0,-13 2,-26 8,-38 5,-13 13,-23 22,-32 8,-8 18,-13 28,-18 11,-4 22,-6 34,-6 11,0 22,2 31,5 8,3 17,8 25,14z"/>
  <path id="33649952" class="fil3" d="M-1292 3191c0,17 5,30 14,40 9,9 21,14 37,14 15,0 28,-5 37,-15 9,-10 14,-23 14,-40 0,-15 -5,-27 -15,-37 -9,-10 -21,-15 -36,-15 -15,0 -27,5 -37,15 -9,10 -14,23 -14,38zm-43 0c0,-12 3,-24 7,-35 5,-12 11,-22 20,-31 9,-9 19,-16 31,-20 11,-5 23,-8 35,-8 13,0 25,3 36,7 10,4 21,11 30,19 9,9 16,19 21,31 5,12 8,24 8,36 0,14 -2,27 -7,38 -4,11 -11,21 -20,30 -9,10 -19,17 -30,21 -12,5 -24,7 -37,7 -14,0 -26,-2 -37,-7 -11,-4 -21,-12 -30,-21 -9,-10 -16,-20 -20,-31 -5,-11 -7,-23 -7,-36z"/>
  <path id="33649952" class="fil3" d="M-1022 3173l-31 109 -27 0 -62 -179 45 0 29 103 32 -103 30 0 30 103 29 -103 45 0 -62 179 -28 0 -30 -109z"/>
  <path id="33649952" class="fil3" d="M-859 3222l0 3c0,8 2,14 6,19 4,5 9,7 16,7 6,0 11,-1 15,-5 3,-4 5,-8 5,-14 0,-6 -1,-10 -4,-13 -3,-4 -8,-7 -15,-11 -4,-1 -10,-4 -18,-7 -8,-4 -14,-6 -16,-8 -6,-5 -11,-11 -14,-18 -4,-7 -5,-14 -5,-23 0,-15 5,-28 16,-38 10,-11 23,-16 38,-16 16,0 29,5 38,14 9,9 14,22 15,39l-37 0 0 -1c0,-6 -2,-10 -5,-14 -3,-3 -7,-5 -12,-5 -5,0 -9,2 -12,5 -3,3 -4,7 -4,12 0,8 8,15 24,22 4,2 7,3 9,4 16,7 26,14 32,22 6,8 9,19 9,33 0,16 -6,30 -17,41 -12,11 -26,16 -43,16 -17,0 -31,-5 -42,-17 -10,-11 -16,-27 -17,-46l38 -1z"/>
  <path id="33649952" class="fil3" d="M-606 3151l12 0c13,0 23,-3 30,-9 7,-5 10,-13 10,-24 0,-10 -3,-18 -10,-24 -6,-5 -16,-8 -30,-8l-12 0 0 65zm0 131l-46 0 0 -237 59 0c15,0 26,1 35,2 9,2 16,4 21,8 10,7 17,15 23,26 6,11 8,23 8,35 0,23 -7,41 -22,54 -15,14 -35,21 -61,21l-17 0 0 91z"/>
  <path id="33649952" class="fil3" d="M-404 3139c-17,1 -28,6 -34,13 -7,7 -10,20 -10,38l0 92 -42 0 0 -179 40 0 0 20c6,-8 13,-14 20,-17 8,-4 16,-6 26,-6l0 39z"/>
  <path id="33649952" class="fil3" d="M-356 3191c0,17 5,30 14,40 9,9 22,14 37,14 16,0 28,-5 37,-15 9,-10 14,-23 14,-40 0,-15 -5,-27 -15,-37 -9,-10 -21,-15 -36,-15 -15,0 -27,5 -36,15 -10,10 -15,23 -15,38zm-43 0c0,-12 3,-24 7,-35 5,-12 12,-22 20,-31 9,-9 20,-16 31,-20 11,-5 23,-8 35,-8 13,0 25,3 36,7 11,4 21,11 30,19 9,9 16,19 21,31 6,12 8,24 8,36 0,14 -2,27 -7,38 -4,11 -11,21 -20,30 -8,10 -19,17 -30,21 -11,5 -24,7 -37,7 -14,0 -26,-2 -37,-7 -11,-4 -21,-12 -30,-21 -9,-10 -15,-20 -20,-31 -4,-11 -7,-23 -7,-36z"/>
  <path id="33649952" class="fil3" d="M-43 3103l37 0 0 149c0,31 -8,56 -24,73 -17,18 -40,27 -69,27 -21,0 -39,-5 -54,-15 -14,-11 -25,-26 -32,-46l40 0c5,8 11,15 19,19 8,5 17,7 27,7 16,0 30,-5 40,-16 11,-11 16,-25 16,-43l0 -2c-8,9 -17,15 -28,19 -10,5 -21,7 -34,7 -12,0 -23,-2 -34,-6 -10,-5 -20,-10 -28,-18 -9,-9 -16,-19 -21,-30 -5,-12 -8,-24 -8,-36 0,-27 9,-50 26,-67 17,-18 39,-27 65,-27 12,0 24,2 34,6 10,5 19,11 28,20l0 -21zm-111 86c0,16 5,29 15,39 11,11 24,16 39,16 14,0 26,-5 37,-16 11,-10 16,-23 16,-37 0,-15 -5,-28 -16,-39 -10,-11 -23,-16 -37,-16 -15,0 -28,5 -38,15 -11,11 -16,23 -16,38z"/>
  <path id="33649952" class="fil3" d="M113 3139c-16,1 -27,6 -33,13 -7,7 -10,20 -10,38l0 92 -42 0 0 -179 39 0 0 20c7,-8 14,-14 21,-17 8,-4 16,-6 25,-6l0 39z"/>
  <path id="33649952" class="fil3" d="M162 3191c0,15 5,27 15,38 10,10 22,15 37,15 13,0 24,-5 34,-15 10,-11 15,-23 15,-36 0,-15 -5,-27 -15,-38 -10,-10 -21,-16 -35,-16 -14,0 -26,5 -36,15 -10,10 -15,22 -15,37zm106 91l0 -22c-5,9 -12,15 -21,19 -9,5 -21,7 -35,7 -26,0 -48,-9 -66,-27 -18,-18 -27,-41 -27,-68 0,-12 3,-24 7,-35 4,-12 11,-22 19,-30 9,-10 19,-17 30,-21 11,-5 23,-7 36,-7 13,0 25,2 34,7 9,4 17,11 23,19l0 -21 40 0 0 179 -40 0z"/>
  <path id="33649952" class="fil3" d="M386 3103l0 20c6,-8 13,-14 21,-18 8,-4 17,-6 27,-6 14,0 26,3 37,8 10,5 19,13 26,24 7,-11 15,-19 24,-24 9,-5 18,-8 29,-8 22,0 39,7 50,21 12,14 18,33 18,59l0 103 -41 0 0 -80c0,-24 -3,-40 -8,-49 -5,-9 -15,-13 -28,-13 -14,0 -24,5 -29,15 -6,9 -9,26 -9,50l0 77 -42 0 0 -80c0,-24 -2,-40 -8,-49 -5,-9 -15,-13 -29,-13 -14,0 -24,5 -30,15 -6,9 -9,26 -9,50l0 77 -40 0 0 -179 41 0z"/>
  <path id="33649952" class="fil3" d="M695 3103l0 20c6,-8 13,-14 21,-18 8,-4 17,-6 27,-6 14,0 27,3 37,8 10,5 19,13 26,24 8,-11 15,-19 24,-24 9,-5 19,-8 29,-8 22,0 39,7 51,21 12,14 17,33 17,59l0 103 -41 0 0 -80c0,-24 -2,-40 -8,-49 -5,-9 -14,-13 -28,-13 -13,0 -23,5 -29,15 -6,9 -9,26 -9,50l0 77 -41 0 0 -80c0,-24 -3,-40 -9,-49 -5,-9 -15,-13 -28,-13 -14,0 -24,5 -30,15 -6,9 -9,26 -9,50l0 77 -41 0 0 -179 41 0z"/>
  <path id="33649952" class="fil3" d="M1005 3084l-41 0 0 -39 41 0 0 39zm-41 198l0 -179 41 0 0 179 -41 0z"/>
  <path id="33649952" class="fil3" d="M1083 3103l0 20c6,-8 13,-14 20,-18 8,-4 17,-6 27,-6 13,0 25,3 34,7 10,5 18,13 24,22 4,7 7,14 9,23 2,8 3,20 3,36l0 95 -42 0 0 -80c0,-24 -3,-40 -8,-49 -6,-9 -15,-13 -29,-13 -14,0 -24,5 -30,15 -6,9 -9,26 -9,50l0 77 -40 0 0 -179 41 0z"/>
  <path id="33649952" class="fil3" d="M1378 3103l37 0 0 149c0,31 -8,56 -25,73 -16,18 -39,27 -68,27 -22,0 -40,-5 -54,-15 -15,-11 -25,-26 -32,-46l40 0c4,8 11,15 19,19 8,5 17,7 26,7 17,0 31,-5 41,-16 10,-11 15,-25 15,-43l0 -2c-8,9 -17,15 -27,19 -10,5 -22,7 -34,7 -12,0 -23,-2 -34,-6 -11,-5 -20,-10 -28,-18 -9,-9 -16,-19 -21,-30 -5,-12 -8,-24 -8,-36 0,-27 9,-50 26,-67 17,-18 39,-27 65,-27 12,0 23,2 33,6 10,5 20,11 29,20l0 -21zm-112 86c0,16 6,29 16,39 11,11 23,16 39,16 14,0 26,-5 37,-16 10,-10 16,-23 16,-37 0,-15 -5,-28 -16,-39 -10,-11 -23,-16 -38,-16 -15,0 -27,5 -38,15 -10,11 -16,23 -16,38z"/>
  <path id="33649952" class="fil3" d="M1646 3173l-30 109 -28 0 -62 -179 45 0 29 103 32 -103 31 0 30 103 29 -103 45 0 -63 179 -27 0 -31 -109z"/>
  <path id="33649952" class="fil3" d="M1823 3084l-40 0 0 -39 40 0 0 39zm-40 198l0 -179 40 0 0 179 -40 0z"/>
  <path id="33649952" class="fil3" d="M1873 3282l0 -142 -27 0 0 -37 27 0 0 -58 42 0 0 58 27 0 0 37 -27 0 0 142 -42 0z"/>
  <path id="33649952" class="fil3" d="M2003 3045l0 78c6,-8 13,-14 21,-18 8,-4 17,-6 27,-6 22,0 40,7 52,21 11,13 17,33 17,59l0 103 -41 0 0 -79c0,-25 -3,-41 -8,-50 -6,-9 -16,-13 -29,-13 -14,0 -24,5 -30,15 -6,9 -9,26 -9,50l0 77 -40 0 0 -237 40 0z"/>
  <path id="33649952" class="fil3" d="M2362 3188l-28 -76 -29 76 57 0zm-73 44l-18 50 -48 0 92 -237 40 0 90 237 -49 0 -19 -50 -88 0z"/>
  <path id="33649952" class="fil3" d="M2592 3193c0,-15 -5,-28 -15,-38 -10,-10 -22,-16 -36,-16 -15,0 -27,6 -37,16 -10,11 -15,23 -15,37 0,15 5,28 15,38 10,10 23,15 39,15 13,0 25,-5 34,-15 10,-10 15,-22 15,-37zm2 -76l0 -72 41 0 0 237 -41 0 0 -15c-9,7 -17,11 -27,15 -9,3 -19,4 -29,4 -11,0 -22,-1 -32,-5 -10,-3 -19,-9 -27,-16 -11,-9 -19,-20 -25,-33 -6,-12 -9,-26 -9,-40 0,-13 3,-26 8,-38 6,-13 13,-23 23,-32 8,-8 18,-13 28,-18 11,-4 22,-6 34,-6 11,0 22,2 30,5 9,3 18,8 26,14z"/>
  <path id="33649952" class="fil3" d="M2701 3191c0,15 5,27 15,38 10,10 22,15 37,15 13,0 24,-5 34,-15 10,-11 15,-23 15,-36 0,-15 -5,-27 -15,-38 -10,-10 -22,-16 -35,-16 -14,0 -26,5 -36,15 -10,10 -15,22 -15,37zm106 91l0 -22c-5,9 -12,15 -21,19 -9,5 -21,7 -35,7 -26,0 -49,-9 -66,-27 -18,-18 -27,-41 -27,-68 0,-12 2,-24 7,-35 4,-12 11,-22 19,-30 9,-10 19,-17 29,-21 11,-5 24,-7 37,-7 13,0 24,2 34,7 9,4 17,11 22,19l0 -21 41 0 0 179 -40 0z"/>
  <path id="33649952" class="fil3" d="M3098 3125c0,-11 -4,-22 -11,-30 -8,-8 -17,-12 -28,-12 -11,0 -20,4 -27,11 -8,8 -11,18 -11,30 0,12 3,22 10,30 8,7 17,11 28,11 11,0 20,-4 28,-12 7,-7 11,-17 11,-28zm-40 157l-49 0 54 -81c-4,1 -8,2 -10,2 -3,0 -5,0 -8,0 -19,0 -36,-7 -49,-23 -14,-15 -21,-34 -21,-57 0,-9 2,-18 6,-28 4,-9 9,-18 15,-25 8,-10 18,-18 28,-23 10,-4 22,-7 35,-7 12,0 23,2 33,7 10,4 19,10 27,17 7,8 13,17 17,27 5,10 7,20 7,30 0,12 -2,24 -7,36 -5,11 -13,27 -27,47l-51 78z"/>
  <path id="33649952" class="fil3" d="M3312 3045l0 41 -81 0 -8 40c5,-2 11,-5 16,-6 5,-1 11,-2 17,-2 22,0 40,8 56,24 15,17 23,36 23,59 0,11 -2,21 -6,30 -3,10 -9,18 -15,26 -9,10 -18,17 -29,22 -11,5 -22,8 -35,8 -22,0 -41,-7 -57,-22 -15,-15 -24,-34 -26,-57l45 0c1,11 5,19 12,26 7,7 16,10 26,10 11,0 20,-4 27,-12 7,-8 11,-19 11,-31 0,-12 -4,-22 -11,-30 -7,-7 -17,-11 -29,-11 -7,0 -13,1 -18,4 -6,3 -10,7 -13,13l-39 -9 22 -123 112 0z"/>
  <g>
   <a xlink:href="http://www.adapower.com">
    <path id="154795784" class="fil4" d="M-750 100l0 382 181 0c100,0 175,-15 223,-46 48,-31 72,-78 72,-143 0,-67 -25,-116 -73,-147 -48,-31 -126,-46 -233,-46l-170 0zm-123 -99l265 0c76,0 137,4 183,10 45,6 83,17 114,31 55,27 97,61 126,104 30,42 44,90 44,143 0,51 -13,97 -40,140 -26,43 -63,77 -111,103 -33,17 -72,31 -118,39 -46,8 -105,12 -176,12l-164 0 0 421 -123 0 0 -1003z"/>
    <path id="154795784" class="fil4" d="M5 624c0,88 34,161 103,220 69,59 155,88 258,88 101,0 186,-29 255,-88 68,-59 102,-133 102,-221 0,-89 -34,-163 -104,-220 -69,-58 -157,-87 -264,-87 -96,0 -178,30 -247,89 -69,59 -103,132 -103,219zm-127 2c0,-111 47,-206 142,-285 95,-79 207,-118 337,-118 136,0 253,38 349,116 96,77 144,170 144,277 0,113 -47,210 -141,289 -95,80 -209,120 -343,120 -136,0 -252,-39 -346,-117 -95,-78 -142,-172 -142,-282z"/>
    <path id="154795784" class="fil4" d="M1767 814l228 -567 128 0 -318 757 -79 0 -221 -577 -218 577 -79 0 -317 -757 126 0 230 567 216 -567 88 0 216 567z"/>
    <path id="154795784" class="fil4" d="M3135 656l-851 0c8,83 45,149 112,200 66,51 150,76 250,76 71,0 134,-15 191,-44 56,-30 100,-70 131,-123l137 0c-43,84 -104,148 -183,193 -78,45 -169,67 -273,67 -137,0 -253,-39 -348,-117 -95,-79 -142,-173 -142,-283 0,-116 47,-211 139,-286 93,-76 212,-113 356,-113 142,0 258,39 347,117 89,79 134,181 134,306l0 7zm-133 -82c-23,-85 -65,-149 -127,-192 -61,-43 -140,-65 -239,-65 -91,0 -168,24 -232,70 -63,46 -102,108 -116,187l714 0z"/>
    <path id="154795784" class="fil4" d="M3395 1004l-123 0 0 -757 114 0 0 87c30,-34 63,-58 98,-74 35,-15 76,-24 123,-25l1 106c-76,5 -131,23 -164,55 -33,31 -49,81 -49,151l0 457z"/>
    <g transform="matrix(1.80532 0 0 1.45027 -974.807 -6402.64)">
     <text x="0" y="5107" class="fil5 str0 fnt0">Power</text>
    </g>
    <path id="28214456" class="fil6" d="M-3504 1005l-104 0 389 -1002 119 0 387 1002 -105 0 -120 -314 -446 0 -120 314zm532 -405l-190 -503 -188 503 378 0z"/>
    <path id="28214456" class="fil6" d="M-2013 634c0,-86 -29,-160 -86,-221 -57,-61 -124,-91 -201,-91 -80,0 -149,29 -205,87 -57,58 -86,129 -86,213 0,88 29,163 86,223 57,60 126,90 207,90 75,0 141,-30 199,-90 57,-60 86,-130 86,-211zm-3 -266l0 -169 0 -196 98 0 0 1002 -98 0 0 -114c-34,42 -76,75 -127,99 -50,24 -104,35 -160,35 -109,0 -201,-38 -276,-115 -75,-77 -112,-172 -112,-284 0,-111 37,-205 111,-281 73,-75 166,-114 277,-114 60,0 114,12 163,35 49,24 90,57 124,102z"/>
    <path id="28214456" class="fil6" d="M-1125 622c0,-81 -29,-151 -86,-211 -57,-59 -124,-89 -198,-89 -82,0 -151,30 -208,89 -57,60 -86,135 -86,223 0,85 29,156 86,214 56,58 125,87 205,87 77,0 144,-30 201,-92 57,-61 86,-135 86,-221zm0 263c-30,44 -71,78 -123,103 -52,25 -107,37 -167,37 -111,0 -204,-38 -277,-114 -74,-76 -111,-169 -111,-281 0,-113 38,-208 113,-284 75,-76 170,-115 283,-115 59,0 112,12 161,36 48,24 89,58 121,102l0 -121 95 0 0 757 -95 0 0 -120z"/>
    <path id="28214544" class="fil7" d="M-3517 1188l0 292 73 0c46,0 82,-12 106,-38 25,-26 37,-63 37,-110 0,-23 -4,-45 -12,-65 -9,-20 -21,-37 -36,-50 -12,-11 -25,-18 -40,-22 -14,-5 -35,-7 -63,-7l-65 0zm-35 -34l102 0c29,0 52,2 72,8 19,6 36,15 50,27 21,17 37,39 49,64 11,25 17,52 17,80 0,32 -7,61 -19,87 -13,26 -31,48 -54,64 -15,11 -31,19 -49,23 -17,5 -45,7 -82,7l-86 0 0 -360z"/>
    <path id="28214544" class="fil7" d="M-2952 1389l-246 0c2,30 13,54 32,72 19,18 43,28 72,28 21,0 39,-6 56,-16 16,-11 29,-26 37,-45l40 0c-12,30 -30,54 -53,70 -22,16 -49,24 -79,24 -39,0 -73,-14 -100,-42 -28,-29 -41,-63 -41,-102 0,-42 13,-76 40,-103 27,-27 61,-41 103,-41 41,0 74,15 100,43 26,28 39,65 39,110l0 2zm-39 -29c-6,-31 -19,-54 -36,-69 -18,-16 -41,-24 -69,-24 -27,0 -49,9 -67,25 -19,17 -30,39 -34,68l206 0z"/>
    <path id="28214544" class="fil7" d="M-2805 1514l-32 0 -107 -272 37 0 87 220 88 -220 38 0 -111 272z"/>
    <path id="28214544" class="fil7" d="M-2403 1389l-246 0c2,30 13,54 32,72 20,18 44,28 73,28 20,0 39,-6 55,-16 16,-11 29,-26 38,-45l39 0c-12,30 -30,54 -52,70 -23,16 -49,24 -79,24 -40,0 -73,-14 -101,-42 -27,-29 -41,-63 -41,-102 0,-42 13,-76 40,-103 27,-27 61,-41 103,-41 41,0 75,15 100,43 26,28 39,65 39,110l0 2zm-38 -29c-7,-31 -19,-54 -37,-69 -18,-16 -41,-24 -69,-24 -26,0 -49,9 -67,25 -18,17 -30,39 -34,68l207 0z"/>
    <path id="28214544" class="fil7" d="M-2362 1514l0 -360 35 0 0 360 -35 0z"/>
    <path id="28214544" class="fil7" d="M-2249 1378c0,31 10,58 30,79 20,21 45,32 74,32 30,0 54,-11 74,-32 20,-21 30,-48 30,-80 0,-32 -10,-58 -30,-79 -20,-21 -46,-31 -77,-31 -27,0 -51,11 -71,32 -20,21 -30,47 -30,79zm-37 0c0,-40 14,-74 41,-102 28,-29 60,-43 98,-43 39,0 73,14 101,42 27,28 41,61 41,100 0,40 -13,75 -40,104 -28,29 -61,43 -100,43 -39,0 -72,-14 -100,-42 -27,-28 -41,-62 -41,-102z"/>
    <path id="28214544" class="fil7" d="M-1964 1242l34 0 0 44c10,-15 24,-27 42,-36 19,-10 38,-14 59,-14 41,0 75,14 102,41 27,27 41,61 41,102 0,40 -13,74 -40,101 -27,28 -60,41 -100,41 -22,0 -42,-4 -60,-12 -18,-9 -32,-21 -44,-38l0 19 0 41 0 71 -34 0 0 -360zm34 134c0,31 10,58 31,80 20,22 44,33 72,33 29,0 53,-10 74,-31 20,-21 30,-47 30,-77 0,-32 -10,-59 -31,-80 -20,-22 -45,-33 -74,-33 -27,0 -51,11 -71,33 -21,21 -31,47 -31,75z"/>
    <path id="28214544" class="fil7" d="M-1377 1389l-246 0c2,30 13,54 33,72 19,18 43,28 72,28 20,0 39,-6 55,-16 16,-11 29,-26 38,-45l40 0c-13,30 -31,54 -53,70 -23,16 -49,24 -79,24 -40,0 -73,-14 -101,-42 -27,-29 -41,-63 -41,-102 0,-42 14,-76 40,-103 27,-27 61,-41 103,-41 41,0 75,15 100,43 26,28 39,65 39,110l0 2zm-38 -29c-7,-31 -19,-54 -37,-69 -18,-16 -40,-24 -69,-24 -26,0 -49,9 -67,25 -18,17 -30,39 -34,68l207 0z"/>
    <path id="28214544" class="fil7" d="M-1302 1514l-35 0 0 -272 33 0 0 31c8,-12 18,-21 28,-26 10,-6 22,-9 36,-9l0 38c-22,2 -38,8 -47,19 -10,12 -15,30 -15,55l0 164z"/>
    <path id="28214544" class="fil7" d="M-1031 1189l0 325 -35 0 0 -360 97 0c21,0 38,1 51,4 13,4 25,9 35,16 15,11 26,24 34,41 9,17 13,35 13,53 0,28 -8,52 -25,72 -17,21 -37,32 -62,33l87 141 -42 0 -107 -174 34 0c23,0 41,-6 56,-20 14,-13 21,-30 21,-51 0,-13 -2,-24 -7,-35 -4,-10 -10,-19 -19,-27 -7,-7 -16,-11 -26,-14 -10,-3 -27,-4 -53,-4l-52 0z"/>
    <path id="28214544" class="fil7" d="M-526 1389l-246 0c2,30 13,54 32,72 19,18 43,28 72,28 21,0 39,-6 56,-16 16,-11 29,-26 37,-45l40 0c-12,30 -30,54 -53,70 -23,16 -49,24 -79,24 -39,0 -73,-14 -100,-42 -28,-29 -41,-63 -41,-102 0,-42 13,-76 40,-103 27,-27 61,-41 103,-41 41,0 74,15 100,43 26,28 39,65 39,110l0 2zm-39 -29c-6,-31 -19,-54 -36,-69 -18,-16 -41,-24 -69,-24 -27,0 -49,9 -68,25 -18,17 -29,39 -33,68l206 0z"/>
    <path id="28214544" class="fil7" d="M-503 1429l35 0 0 1c0,17 5,31 15,42 10,11 22,17 36,17 14,0 25,-5 34,-13 9,-9 14,-20 14,-33 0,-13 -3,-23 -11,-31 -7,-8 -20,-16 -39,-23 -30,-10 -50,-21 -59,-32 -9,-12 -14,-27 -14,-46 0,-21 8,-39 23,-54 16,-15 35,-22 56,-22 24,0 42,6 56,20 14,13 21,31 22,55l-37 0c-1,-13 -5,-23 -13,-30 -7,-7 -17,-11 -30,-11 -11,0 -21,4 -28,12 -8,7 -12,17 -12,28 0,9 2,15 5,21 3,5 8,10 16,15 6,4 16,8 29,12 12,4 21,6 25,8 17,7 29,17 37,29 8,12 12,28 12,46 0,24 -8,43 -24,58 -16,16 -37,23 -62,23 -26,0 -46,-8 -62,-25 -15,-16 -24,-39 -24,-67z"/>
    <path id="28214544" class="fil7" d="M-267 1378c0,31 10,58 30,79 20,21 45,32 75,32 29,0 53,-11 73,-32 20,-21 30,-48 30,-80 0,-32 -10,-58 -30,-79 -20,-21 -46,-31 -77,-31 -27,0 -51,11 -71,32 -20,21 -30,47 -30,79zm-37 0c0,-40 14,-74 41,-102 28,-29 60,-43 98,-43 39,0 73,14 101,42 28,28 41,61 41,100 0,40 -13,75 -40,104 -28,29 -61,43 -99,43 -40,0 -73,-14 -101,-42 -27,-28 -41,-62 -41,-102z"/>
    <path id="28214544" class="fil7" d="M18 1242l34 0 0 144c0,38 6,64 18,79 12,16 32,24 60,24 15,0 29,-4 41,-10 12,-6 21,-16 29,-28 4,-7 7,-15 9,-25 1,-9 2,-26 2,-50l0 -134 35 0 0 272 -35 0 0 -29c-10,13 -22,22 -35,28 -13,6 -29,8 -47,8 -40,0 -68,-10 -85,-31 -18,-22 -26,-57 -26,-106l0 -142z"/>
    <path id="28214544" class="fil7" d="M337 1514l-36 0 0 -272 33 0 0 31c9,-12 18,-21 28,-26 11,-6 22,-9 36,-9l0 38c-22,2 -38,8 -47,19 -10,12 -14,30 -14,55l0 164z"/>
    <path id="28214544" class="fil7" d="M646 1326c-10,-20 -23,-35 -39,-44 -15,-10 -34,-15 -55,-15 -28,0 -52,11 -71,32 -20,22 -30,48 -30,79 0,32 10,58 30,79 20,21 44,32 73,32 21,0 39,-6 56,-16 16,-11 28,-25 36,-44l39 0c-10,30 -27,52 -50,69 -22,16 -49,24 -80,24 -39,0 -72,-14 -100,-42 -27,-28 -40,-62 -40,-101 0,-40 13,-75 41,-103 27,-28 61,-42 100,-42 30,0 56,8 78,24 23,16 40,39 51,68l-39 0z"/>
    <path id="28214544" class="fil7" d="M1003 1389l-246 0c2,30 13,54 32,72 20,18 44,28 73,28 20,0 39,-6 55,-16 16,-11 29,-26 38,-45l39 0c-12,30 -30,54 -52,70 -23,16 -49,24 -79,24 -40,0 -73,-14 -101,-42 -27,-29 -41,-63 -41,-102 0,-42 13,-76 40,-103 27,-27 61,-41 103,-41 41,0 75,15 100,43 26,28 39,65 39,110l0 2zm-38 -29c-7,-31 -19,-54 -37,-69 -18,-16 -41,-24 -69,-24 -26,0 -49,9 -67,25 -18,17 -30,39 -34,68l207 0z"/>
    <path id="28214544" class="fil7" d="M1026 1429l36 0 0 1c0,17 5,31 15,42 9,11 21,17 36,17 13,0 25,-5 34,-13 9,-9 13,-20 13,-33 0,-13 -3,-23 -10,-31 -7,-8 -20,-16 -39,-23 -30,-10 -50,-21 -59,-32 -10,-12 -14,-27 -14,-46 0,-21 7,-39 23,-54 15,-15 34,-22 56,-22 23,0 42,6 55,20 14,13 21,31 22,55l-37 0c-1,-13 -5,-23 -12,-30 -8,-7 -18,-11 -30,-11 -12,0 -21,4 -29,12 -7,7 -11,17 -11,28 0,9 1,15 4,21 4,5 9,10 16,15 7,4 16,8 29,12 13,4 21,6 25,8 17,7 30,17 38,29 8,12 12,28 12,46 0,24 -8,43 -25,58 -16,16 -37,23 -62,23 -25,0 -46,-8 -62,-25 -15,-16 -23,-39 -24,-67z"/>
    <path id="28214544" class="fil7" d="M1614 1376c0,-29 -10,-54 -31,-75 -21,-22 -44,-33 -71,-33 -30,0 -54,11 -75,33 -21,21 -31,48 -31,80 0,30 10,56 31,77 20,21 45,31 74,31 27,0 52,-11 72,-33 21,-22 31,-49 31,-80zm0 95c-11,16 -26,28 -44,37 -19,9 -39,13 -60,13 -40,0 -74,-13 -100,-41 -27,-27 -40,-61 -40,-101 0,-40 14,-75 41,-102 27,-27 61,-41 102,-41 21,0 40,4 57,13 18,8 32,20 44,36l0 -43 34 0 0 272 -34 0 0 -43z"/>
    <path id="28214544" class="fil7" d="M1703 1242l34 0 0 31c11,-13 23,-22 37,-28 15,-6 31,-9 49,-9 20,0 38,4 53,12 16,7 28,18 37,32 7,9 11,21 14,34 2,13 4,32 4,58l0 142 -35 0 0 -152c0,-32 -6,-56 -18,-70 -12,-15 -32,-22 -59,-22 -16,0 -30,3 -42,9 -12,7 -21,16 -28,28 -4,7 -8,16 -9,25 -2,10 -3,26 -3,50l0 132 -34 0 0 -272z"/>
    <path id="28214544" class="fil7" d="M2216 1381c0,-31 -10,-58 -30,-80 -21,-22 -45,-33 -73,-33 -29,0 -53,11 -74,32 -20,21 -30,46 -30,76 0,32 10,59 31,81 20,21 45,32 74,32 27,0 51,-11 72,-32 20,-22 30,-47 30,-76zm-1 -96l0 -61 0 -70 36 0 0 360 -36 0 0 -41c-12,15 -27,27 -45,36 -18,8 -37,12 -58,12 -39,0 -72,-13 -99,-41 -27,-28 -40,-62 -40,-102 0,-40 13,-74 39,-101 27,-27 60,-41 100,-41 22,0 41,4 59,12 17,9 32,21 44,37z"/>
    <path id="28214544" class="fil7" d="M2531 1514l-35 0 0 -325 -72 0 0 -35 180 0 0 35 -73 0 0 325z"/>
    <path id="28214544" class="fil7" d="M2636 1378c0,31 10,58 30,79 20,21 45,32 74,32 30,0 54,-11 74,-32 20,-21 30,-48 30,-80 0,-32 -10,-58 -30,-79 -20,-21 -46,-31 -77,-31 -28,0 -51,11 -71,32 -20,21 -30,47 -30,79zm-37 0c0,-40 14,-74 41,-102 28,-29 60,-43 98,-43 39,0 73,14 101,42 27,28 41,61 41,100 0,40 -13,75 -40,104 -28,29 -61,43 -100,43 -39,0 -72,-14 -100,-42 -27,-28 -41,-62 -41,-102z"/>
    <path id="28214544" class="fil7" d="M2943 1378c0,31 10,58 30,79 20,21 45,32 75,32 29,0 53,-11 73,-32 20,-21 30,-48 30,-80 0,-32 -10,-58 -30,-79 -20,-21 -46,-31 -76,-31 -28,0 -52,11 -72,32 -20,21 -30,47 -30,79zm-36 0c0,-40 13,-74 41,-102 27,-29 60,-43 97,-43 39,0 73,14 101,42 28,28 42,61 42,100 0,40 -14,75 -41,104 -27,29 -60,43 -99,43 -40,0 -73,-14 -100,-42 -28,-28 -41,-62 -41,-102z"/>
    <path id="28214544" class="fil7" d="M3229 1514l0 -360 35 0 0 360 -35 0z"/>
    <path id="28214544" class="fil7" d="M3303 1429l36 0 0 1c0,17 5,31 15,42 10,11 22,17 36,17 14,0 25,-5 34,-13 9,-9 14,-20 14,-33 0,-13 -4,-23 -11,-31 -7,-8 -20,-16 -39,-23 -30,-10 -50,-21 -59,-32 -9,-12 -14,-27 -14,-46 0,-21 8,-39 23,-54 16,-15 34,-22 56,-22 24,0 42,6 56,20 13,13 21,31 22,55l-38 0c0,-13 -4,-23 -12,-30 -7,-7 -17,-11 -30,-11 -11,0 -21,4 -28,12 -8,7 -12,17 -12,28 0,9 2,15 5,21 3,5 8,10 15,15 7,4 17,8 29,12 13,4 21,6 26,8 17,7 29,17 37,29 8,12 12,28 12,46 0,24 -8,43 -24,58 -17,16 -37,23 -62,23 -26,0 -46,-8 -62,-25 -16,-16 -24,-39 -25,-67z"/>
   </a>
  </g>
 </g>
</svg>
